<?xml version="1.0" encoding="utf-8"?>
<!-- Svg Vector Icons : http://www.onlinewebfonts.com/icon -->
<!DOCTYPE svg PUBLIC "-//W3C//DTD SVG 1.1//EN" "http://www.w3.org/Graphics/SVG/1.1/DTD/svg11.dtd">
<svg version="1.1" xmlns="http://www.w3.org/2000/svg" xmlns:xlink="http://www.w3.org/1999/xlink" x="0px" y="0px"
width="50px" height="50px" fill="rgb(205, 175, 97)"
 viewBox="0 0 1000 1000" enable-background="new 0 0 1000 1000" xml:space="preserve">
<metadata> Svg Vector Icons : http://www.onlinewebfonts.com/icon </metadata>
<g><g transform="translate(0.000000,511.000000) scale(0.100000,-0.100000)"><path d="M3521.6,4993.3c-275.6-47.3-531.8-242.2-657.1-495.6c-75.2-155.9-77.9-169.8-86.3-721.1l-8.4-565.2H1433.6H100V2766v-445.5h445.5h445.5V-881.1c0-3093.1,2.8-3207.3,52.9-3340.9c83.5-217.1,225.5-373.1,442.7-478.9l186.5-91.9h3327c3324.2,0,3327,0,3455,58.5c155.9,72.4,317.4,211.6,403.7,350.8c153.1,242.2,150.4,161.5,150.4,3563.6v3140.4h445.5H9900V2766v445.5H8563.6H7227.3v515.1c0,442.7-8.3,537.3-55.7,673.8c-77.9,222.7-231.1,392.5-459.4,509.5l-189.3,97.4l-1436.6,5.6C4295.6,5012.8,3591.2,5007.2,3521.6,4993.3z M6336.4,3670.8v-459.4H5000H3663.6v459.4v459.4H5000h1336.4V3670.8z M8118.2-797.6v-3118.2h-445.4h-445.5v2672.7v2672.7h-445.5h-445.4v-2672.7v-2672.7h-445.5h-445.5v2672.7v2672.7H5000h-445.5v-2672.7v-2672.7h-445.5h-445.5v2672.7v2672.7h-445.5h-445.5v-2672.7v-2672.7h-445.5h-445.5v3118.2v3118.2H5000h3118.2V-797.6z"/></g></g>
</svg>